<svg xmlns="http://www.w3.org/2000/svg" width="1273.2" height="715.3" viewBox="0 0 1273.2 715.3"><path fill="none" stroke="#fff" stroke-miterlimit="10" stroke-width="39.45" d="M29.4 477.1c31 75.3 75.3 143.5 131.9 183.5s127.1 48.7 184.2 10.3c64.4-43.2 101.8-136.5 123.6-229s32.1-190.4 62.8-278.2c19.5-55.9 51.5-110.5 96.5-121.6 31-7.7 63.7 7.6 87.8 34.9s40.5 65.7 50.7 106c16.7 66.1 17.7 137.2 21.3 206.8s10.2 141.5 36.3 201.7 76.4 106.5 127.7 96.7c43.3-8.4 78.5-54.7 97.5-107.8s24.8-113 30.2-171.6l36-389.1h135.7l-36.1 389.1c-5.4 58.6-11.1 118.4-30.2 171.6s-54.2 99.4-97.5 107.8c-51.3 9.8-101.5-36.4-127.6-96.7s-32.9-132-36.4-201.7-4.6-140.7-21.3-206.8c-10.2-40.3-26.5-78.6-50.6-106S795 34.4 764 42.1c-45 11.1-77 65.7-96.5 121.6-30.7 87.8-41.1 185.6-62.8 278.2s-59.2 185.8-123.6 229c-57.1 38.4-127.7 29.7-184.2-10.3s-100-108.1-131-183.4z" opacity=".2"/></svg>